# xmcd CD database file
#
# Track frame offsets:
#	150
#	17835
#	32530
#	57367
#
# Disc length: 1006 seconds
#
# Revision: 0
# Processed by: cddbd v1.5.1PL0 Copyright (c) Steve Scherf et al.
# Submitted via: CDex 1.51
#
DISCID=2903ec04
DTITLE=Kasey Chambers - Don't Talk Back
DYEAR=1999
DGENRE=Country
TTITLE0=Don't Talk Back
TTITLE1=Better Be Home Soon
TTITLE2=Dam
TTITLE3=Another Lonely Day
EXTD=YEAR: 1999
EXTT0=
EXTT1=
EXTT2=
EXTT3=
PLAYORDER=
